<?xml version="1.0" encoding="UTF-8"?>
<svg width="480px" height="480px" viewBox="0 0 480 480" version="1.1" xmlns="http://www.w3.org/2000/svg" xmlns:xlink="http://www.w3.org/1999/xlink">
    <!-- Generator: Sketch 3.8.1 (29687) - http://www.bohemiancoding.com/sketch -->
    <title>Untitled</title>
    <desc>Created with Sketch.</desc>
    <defs></defs>
    <g id="Page-1" stroke="none" stroke-width="1" fill="none" fill-rule="evenodd">
        <g id="001-moon">
            <g id="Group">
                <path id="Shape" fill="#FFEDB9"></path>
                <path id="Shape" fill="#FFEDB9"></path>
                <path id="Shape" fill="#FFEDB9"></path>
                <path id="Shape" fill="#FFEDB9"></path>
                <path id="Shape" fill="#FFEDB9"></path>
                <path d="M303.561,8.525 C342.118,19.108 376.791,39.079 404.998,65.806 C395.485,64.659 385.822,64 376,64 C364.891,64 353.964,64.772 343.257,66.233 C343.706,66.82 344.147,67.419 344.568,68.042 C353.688,81.515 352.587,98.188 342.108,105.282 C331.629,112.376 315.74,107.204 306.62,93.731 C302.817,88.113 300.798,81.941 300.488,76.137 C282.318,82.156 265.114,90.288 249.159,100.241 C253.44,105.681 256,112.539 256,120 C256,137.673 241.673,152 224,152 C214.365,152 205.732,147.736 199.865,140.999 C160.234,183.802 136,241.067 136,304 C136,372.614 164.84,434.454 211.002,478.194 C133.087,468.803 66.659,422.109 30.134,356.486 C71.109,430.151 149.727,480 240,480 C372.548,480 480,372.548 480,240 C480,129.458 405.259,36.388 303.561,8.525 L303.561,8.525 Z M186.32,186.32 C189.359,183.359 194.64,183.359 197.679,186.32 C199.117,187.84 199.999,189.918 199.999,192 C199.999,194.078 199.116,196.16 197.679,197.68 C196.156,199.118 194.077,200 191.999,200 C189.921,200 187.835,199.117 186.319,197.68 C184.874,196.16 183.999,194.078 183.999,192 C184,189.84 184.875,187.84 186.32,186.32 L186.32,186.32 Z M181.68,389.679 C180.157,391.117 178.078,391.999 176,391.999 C173.922,391.999 171.836,391.116 170.32,389.679 C168.875,388.159 168,386.077 168,383.999 C168,381.917 168.875,379.839 170.32,378.319 C173.359,375.358 178.64,375.358 181.679,378.319 C183.117,379.839 183.999,381.917 183.999,383.999 C184,386.078 183.117,388.16 181.68,389.679 L181.68,389.679 Z M184,300 C184,275.7 203.699,256 228,256 C252.3,256 272,275.699 272,300 C272,324.301 252.301,344 228,344 C203.699,344 184,324.301 184,300 L184,300 Z M268.277,438.911 C248.621,444.174 229.432,436.285 225.416,421.289 C221.4,406.293 234.079,389.87 253.735,384.606 C273.391,379.343 292.58,387.232 296.596,402.228 C300.612,417.224 287.933,433.647 268.277,438.911 L268.277,438.911 Z M325.68,293.68 C324.157,295.118 322.078,296 320,296 C317.922,296 315.836,295.117 314.32,293.68 C312.875,292.16 312,290.078 312,288 C312,285.918 312.875,283.84 314.32,282.32 C317.359,279.359 322.64,279.359 325.679,282.32 C327.117,283.84 327.999,285.918 327.999,288 C328,290.078 327.117,292.16 325.68,293.68 L325.68,293.68 Z M312,216 C298.745,216 288,205.255 288,192 C288,178.745 298.745,168 312,168 C325.255,168 336,178.745 336,192 C336,205.255 325.255,216 312,216 L312,216 Z M378.398,146.32 C381.195,143.437 386.64,143.359 389.679,146.32 C391.117,147.84 391.999,149.918 391.999,152 C391.999,154.078 391.116,156.16 389.679,157.68 C388.156,159.118 386.077,160 383.999,160 C381.835,160 379.835,159.117 378.319,157.68 C376.874,156.16 375.999,154.078 375.999,152 C376,149.84 376.875,147.84 378.398,146.32 L378.398,146.32 Z M383.856,352.573 C374.862,361.567 362.101,363.39 355.356,356.644 C348.61,349.898 350.433,337.138 359.427,328.144 C368.422,319.15 381.182,317.327 387.927,324.072 C394.672,330.817 392.85,343.578 383.856,352.573 L383.856,352.573 Z M388.289,267.636 C375.985,265.608 368.204,250.665 370.908,234.26 C373.612,217.855 385.779,206.201 398.082,208.229 C410.385,210.257 418.167,225.2 415.463,241.605 C412.759,258.01 400.592,269.664 388.289,267.636 L388.289,267.636 Z" id="Shape" fill="#C5C5C4"></path>
                <path id="Shape" fill="#FFEDB9"></path>
                <path d="M298.142,7.107 C299.877,7.539 301.604,7.99 303.324,8.46 C301.604,7.991 299.877,7.539 298.142,7.107 L298.142,7.107 Z" id="Shape" fill="#FFEDB9"></path>
                <path d="M287.051,4.624 C288.59,4.93 290.122,5.255 291.65,5.591 C290.121,5.255 288.589,4.929 287.051,4.624 L287.051,4.624 Z" id="Shape" fill="#FFEDB9"></path>
                <path id="Shape" fill="#FFEDB9"></path>
                <path id="Shape" fill="#FFEDB9"></path>
                <path d="M292.635,5.805 C294.268,6.171 295.894,6.555 297.514,6.954 C295.894,6.556 294.269,6.171 292.635,5.805 L292.635,5.805 Z" id="Shape" fill="#FFEDB9"></path>
                <path d="M269.87,1.849 C271.135,2.006 272.393,2.183 273.652,2.36 C272.393,2.183 271.135,2.006 269.87,1.849 L269.87,1.849 Z" id="Shape" fill="#FFEDB9"></path>
                <path d="M275.664,2.642 C277.019,2.844 278.367,3.065 279.714,3.29 C278.367,3.065 277.019,2.844 275.664,2.642 L275.664,2.642 Z" id="Shape" fill="#FFEDB9"></path>
                <path d="M281.394,3.568 C282.84,3.82 284.279,4.09 285.716,4.368 C284.279,4.091 282.84,3.82 281.394,3.568 L281.394,3.568 Z" id="Shape" fill="#FFEDB9"></path>
                <path id="Shape" fill="#FFEDB9"></path>
                <path id="Shape" fill="#FFEDB9"></path>
                <path d="M14.108,321.229 C12.553,316.907 11.125,312.525 9.815,308.093 C11.125,312.526 12.554,316.907 14.108,321.229 L14.108,321.229 Z" id="Shape" fill="#FFEDB9"></path>
                <path d="M17.864,330.98 C17.345,329.715 16.829,328.447 16.331,327.171 C16.829,328.448 17.345,329.715 17.864,330.98 L17.864,330.98 Z" id="Shape" fill="#FFEDB9"></path>
                <path d="M20.031,336.094 C19.482,334.84 18.938,333.582 18.41,332.317 C18.938,333.582 19.482,334.839 20.031,336.094 L20.031,336.094 Z" id="Shape" fill="#FFEDB9"></path>
                <path d="M15.854,325.916 C15.348,324.598 14.845,323.278 14.362,321.949 C14.845,323.278 15.349,324.597 15.854,325.916 L15.854,325.916 Z" id="Shape" fill="#FFEDB9"></path>
                <path d="M5.1,289.396 C4.908,288.477 4.725,287.555 4.543,286.632 C4.725,287.555 4.907,288.477 5.1,289.396 L5.1,289.396 Z" id="Shape" fill="#FFEDB9"></path>
                <path d="M7.731,300.627 C7.482,299.671 7.249,298.709 7.011,297.748 C7.249,298.709 7.482,299.671 7.731,300.627 L7.731,300.627 Z" id="Shape" fill="#FFEDB9"></path>
                <path d="M6.349,295.035 C6.13,294.104 5.925,293.168 5.717,292.233 C5.925,293.168 6.131,294.104 6.349,295.035 L6.349,295.035 Z" id="Shape" fill="#FFEDB9"></path>
                <path id="Shape" fill="#FFEDB9"></path>
                <path d="M9.242,306.163 C8.952,305.152 8.682,304.132 8.405,303.116 C8.681,304.133 8.952,305.152 9.242,306.163 L9.242,306.163 Z" id="Shape" fill="#FFEDB9"></path>
                <path d="M24.746,346.221 C24.11,344.935 23.484,343.642 22.87,342.343 C23.483,343.643 24.11,344.935 24.746,346.221 L24.746,346.221 Z" id="Shape" fill="#FFEDB9"></path>
                <path d="M29.933,356.127 C29.162,354.736 28.407,353.336 27.664,351.929 C28.407,353.336 29.163,354.736 29.933,356.127 L29.933,356.127 Z" id="Shape" fill="#FFEDB9"></path>
                <path d="M27.283,351.207 C26.587,349.88 25.905,348.544 25.233,347.203 C25.905,348.545 26.588,349.88 27.283,351.207 L27.283,351.207 Z" id="Shape" fill="#FFEDB9"></path>
                <path d="M22.327,341.18 C21.739,339.917 21.159,338.65 20.592,337.376 C21.158,338.651 21.739,339.917 22.327,341.18 L22.327,341.18 Z" id="Shape" fill="#FFEDB9"></path>
                <path d="M211.002,478.194 C164.84,434.454 136,372.614 136,304 C136,241.067 160.234,183.803 199.865,141 C205.732,147.736 214.365,152 224,152 C241.673,152 256,137.673 256,120 C256,112.539 253.44,105.681 249.159,100.239 C265.113,90.286 282.317,82.154 300.488,76.135 C300.798,81.939 302.817,88.112 306.62,93.729 C315.74,107.202 331.629,112.374 342.108,105.28 C352.587,98.186 353.689,81.514 344.568,68.04 C344.146,67.417 343.706,66.818 343.257,66.231 C353.964,64.772 364.891,64 376,64 C385.822,64 395.485,64.659 404.998,65.806 C376.791,39.079 342.118,19.108 303.561,8.525 C303.482,8.503 303.403,8.482 303.324,8.461 C301.604,7.991 299.877,7.54 298.142,7.108 C297.933,7.056 297.724,7.006 297.515,6.955 C295.895,6.556 294.269,6.172 292.636,5.806 C292.308,5.733 291.978,5.663 291.65,5.591 C290.122,5.255 288.59,4.931 287.051,4.624 C286.607,4.536 286.161,4.454 285.717,4.368 C284.28,4.09 282.841,3.82 281.395,3.568 C280.837,3.471 280.275,3.383 279.716,3.29 C278.369,3.065 277.02,2.844 275.666,2.642 C274.997,2.542 274.324,2.455 273.653,2.36 C272.394,2.183 271.136,2.006 269.871,1.849 C269.088,1.752 268.301,1.67 267.516,1.58 C266.349,1.446 265.183,1.309 264.01,1.193 C263.109,1.103 262.203,1.032 261.3,0.952 C260.231,0.858 259.163,0.757 258.09,0.677 C257.054,0.6 256.011,0.543 254.971,0.479 C254.018,0.42 253.067,0.352 252.111,0.304 C250.867,0.242 249.617,0.205 248.368,0.162 C247.605,0.136 246.845,0.097 246.08,0.078 C244.059,0.027 242.033,0 240,0 C107.452,0 0,107.452 0,240 C0,241.997 0.027,243.988 0.076,245.973 C0.092,246.642 0.125,247.307 0.146,247.974 C0.189,249.288 0.232,250.602 0.296,251.911 C0.335,252.706 0.389,253.496 0.436,254.289 C0.505,255.465 0.573,256.64 0.659,257.811 C0.721,258.656 0.796,259.497 0.867,260.34 C0.96,261.452 1.054,262.563 1.163,263.67 C1.248,264.542 1.344,265.41 1.439,266.279 C1.556,267.35 1.675,268.42 1.806,269.487 C1.915,270.376 2.032,271.262 2.151,272.147 C2.29,273.184 2.433,274.219 2.585,275.252 C2.718,276.154 2.856,277.054 2.999,277.952 C3.159,278.961 3.326,279.967 3.499,280.972 C3.656,281.883 3.815,282.793 3.983,283.7 C4.163,284.68 4.353,285.657 4.545,286.632 C4.727,287.555 4.909,288.477 5.102,289.396 C5.3,290.344 5.51,291.289 5.719,292.233 C5.927,293.168 6.133,294.104 6.351,295.035 C6.564,295.942 6.79,296.845 7.013,297.748 C7.25,298.708 7.484,299.671 7.733,300.627 C7.95,301.46 8.181,302.286 8.406,303.116 C8.683,304.133 8.953,305.152 9.243,306.163 C9.428,306.809 9.627,307.449 9.817,308.092 C11.127,312.525 12.555,316.906 14.11,321.228 C14.196,321.467 14.277,321.709 14.364,321.948 C14.847,323.277 15.35,324.597 15.856,325.915 C16.016,326.333 16.171,326.754 16.333,327.17 C16.831,328.446 17.347,329.714 17.866,330.979 C18.049,331.424 18.227,331.872 18.412,332.315 C18.94,333.581 19.484,334.838 20.033,336.092 C20.22,336.519 20.404,336.948 20.594,337.374 C21.161,338.648 21.741,339.916 22.329,341.178 C22.51,341.566 22.689,341.954 22.872,342.341 C23.486,343.64 24.112,344.933 24.748,346.219 C24.91,346.547 25.072,346.874 25.236,347.2 C25.908,348.542 26.59,349.877 27.286,351.204 C27.412,351.445 27.54,351.685 27.667,351.926 C28.411,353.333 29.165,354.734 29.936,356.124 C30.003,356.244 30.07,356.363 30.137,356.483 C66.659,422.109 133.088,468.803 211.002,478.194 L211.002,478.194 Z M309.08,56.49 C319.067,49.729 333.901,54.203 343.173,66.292 C328.51,68.299 314.278,71.628 300.584,76.159 C300.151,68.043 302.97,60.626 309.08,56.49 L309.08,56.49 Z M202.32,34.32 C205.281,31.359 210.64,31.359 213.679,34.32 C215.117,35.84 215.999,37.918 215.999,40 C215.999,42.078 215.116,44.16 213.679,45.68 C212.156,47.117 210.078,48 208,48 C205.922,48 203.836,47.117 202.32,45.68 C200.875,44.16 200,42.16 200,40 C200,37.84 200.875,35.758 202.32,34.32 L202.32,34.32 Z M192.042,118.353 C192.871,101.99 205.991,88.871 222.354,88.041 C222.899,88.014 223.448,88 224,88 C234.219,88 243.213,92.878 249.072,100.335 C230.941,111.659 214.432,125.324 199.97,140.928 C195.07,135.306 192,128.044 192,120 C192,119.448 192.014,118.899 192.042,118.353 L192.042,118.353 Z M104.201,100.201 C113.605,90.797 127.9,89.844 136.128,98.073 C144.357,106.302 143.404,120.596 134,130 C124.596,139.404 110.301,140.357 102.073,132.128 C93.845,123.899 94.797,109.605 104.201,100.201 L104.201,100.201 Z M120,287.9 C120,289.978 119.117,292.06 117.68,293.58 C116.157,295.018 114.078,295.9 112,295.9 C109.922,295.9 107.836,295.017 106.32,293.58 C104.875,292.06 104,289.978 104,287.9 C104,285.818 104.875,283.74 106.32,282.22 C109.281,279.259 114.718,279.259 117.679,282.22 C119.117,283.74 120,285.818 120,287.9 L120,287.9 Z M48,224 C48,206.327 60.536,192 76,192 C91.464,192 104,206.327 104,224 C104,241.673 91.464,256 76,256 C60.536,256 48,241.673 48,224 L48,224 Z M77.087,325.087 C86.46,315.714 104.188,318.247 116.685,330.744 C129.182,343.241 131.715,360.969 122.342,370.342 C112.969,379.715 95.241,377.182 82.744,364.685 C70.247,352.188 67.714,334.459 77.087,325.087 L77.087,325.087 Z" id="Shape" fill="#A0A0A0"></path>
                <ellipse id="Oval" fill="#707070" cx="76" cy="224" rx="28" ry="32"></ellipse>
                <ellipse id="Oval" fill="#707070" transform="translate(99.715200, 347.710739) rotate(45.000000) translate(-99.715200, -347.710739) " cx="99.7152" cy="347.710739" rx="31.9996931" ry="23.9997698"></ellipse>
                <ellipse id="Oval" fill="#A0A0A0" transform="translate(371.641298, 340.363200) rotate(225.000000) translate(-371.641298, -340.363200) " cx="371.641298" cy="340.3632" rx="17.2738343" ry="23.0317791"></ellipse>
                <path d="M192,200 C194.078,200 196.156,199.117 197.68,197.68 C199.118,196.16 200,194.078 200,192 C200,189.918 199.117,187.84 197.68,186.32 C194.641,183.359 189.36,183.359 186.321,186.32 C184.876,187.84 184.001,189.84 184.001,192 C184.001,194.078 184.876,196.16 186.321,197.68 C187.836,199.117 189.922,200 192,200 L192,200 Z" id="Shape" fill="#A0A0A0"></path>
                <path d="M106.32,282.221 C104.875,283.741 104,285.819 104,287.901 C104,289.979 104.875,292.061 106.32,293.581 C107.836,295.019 109.922,295.901 112,295.901 C114.078,295.901 116.156,295.018 117.68,293.581 C119.118,292.061 120,289.979 120,287.901 C120,285.819 119.117,283.741 117.68,282.221 C114.719,279.26 109.281,279.26 106.32,282.221 L106.32,282.221 Z" id="Shape" fill="#707070"></path>
                <path d="M314.32,282.32 C312.875,283.84 312,285.918 312,288 C312,290.078 312.875,292.16 314.32,293.68 C315.836,295.118 317.922,296 320,296 C322.078,296 324.156,295.117 325.68,293.68 C327.118,292.16 328,290.078 328,288 C328,285.918 327.117,283.84 325.68,282.32 C322.641,279.359 317.359,279.359 314.32,282.32 L314.32,282.32 Z" id="Shape" fill="#A0A0A0"></path>
                <path d="M384,160 C386.078,160 388.156,159.117 389.68,157.68 C391.118,156.16 392,154.078 392,152 C392,149.918 391.117,147.84 389.68,146.32 C386.641,143.359 381.196,143.437 378.399,146.32 C376.876,147.84 376.001,149.84 376.001,152 C376.001,154.078 376.876,156.16 378.321,157.68 C379.836,159.117 381.836,160 384,160 L384,160 Z" id="Shape" fill="#A0A0A0"></path>
                <path d="M213.68,45.68 C215.118,44.16 216,42.078 216,40 C216,37.918 215.117,35.84 213.68,34.32 C210.641,31.359 205.282,31.359 202.321,34.32 C200.875,35.758 200,37.84 200,40 C200,42.16 200.875,44.16 202.32,45.68 C203.836,47.117 205.922,48 208,48 C210.078,48 212.156,47.117 213.68,45.68 Z" id="Shape" fill="#707070"></path>
                <path d="M170.32,378.32 C168.875,379.84 168,381.918 168,384 C168,386.078 168.875,388.16 170.32,389.68 C171.836,391.118 173.922,392 176,392 C178.078,392 180.156,391.117 181.68,389.68 C183.118,388.16 184,386.078 184,384 C184,381.918 183.117,379.84 181.68,378.32 C178.641,375.359 173.359,375.359 170.32,378.32 L170.32,378.32 Z" id="Shape" fill="#A0A0A0"></path>
                <circle id="Oval" fill="#A0A0A0" cx="228" cy="300" r="44"></circle>
                <circle id="Oval" fill="#A0A0A0" cx="312" cy="192" r="24"></circle>
                <ellipse id="Oval" fill="#A0A0A0" transform="translate(261.012542, 411.736851) rotate(255.007688) translate(-261.012542, -411.736851) " cx="261.012542" cy="411.736851" rx="28.1101481" ry="36.8455049"></ellipse>
                <ellipse id="Oval" fill="#A0A0A0" transform="translate(393.206753, 237.935473) rotate(-80.636579) translate(-393.206753, -237.935473) " cx="393.206753" cy="237.935473" rx="30.1047252" ry="22.5785439"></ellipse>
                <path d="M199.97,140.928 C214.431,125.324 230.94,111.659 249.072,100.335 C243.213,92.878 234.219,88 224,88 C223.448,88 222.899,88.014 222.353,88.042 C205.99,88.871 192.871,101.991 192.041,118.354 C192.014,118.899 192,119.448 192,120 C192,128.043 195.07,135.306 199.97,140.928 L199.97,140.928 Z" id="Shape" fill="#707070"></path>
                <ellipse id="Oval" fill="#707070" transform="translate(119.100400, 115.098220) rotate(45.000000) translate(-119.100400, -115.098220) " cx="119.1004" cy="115.09822" rx="21.0707979" ry="24.0807691"></ellipse>
                <path d="M300.584,76.159 C314.278,71.628 328.51,68.299 343.173,66.292 C333.901,54.203 319.067,49.729 309.08,56.49 C302.97,60.626 300.151,68.043 300.584,76.159 L300.584,76.159 Z" id="Shape" fill="#707070"></path>
            </g>
        </g>
    </g>
</svg>